<?xml version="1.0" encoding="utf-8"?>
<!-- Generator: Adobe Illustrator 24.2.3, SVG Export Plug-In . SVG Version: 6.00 Build 0)  -->
<svg version="1.1" id="图层_1" xmlns="http://www.w3.org/2000/svg" xmlns:xlink="http://www.w3.org/1999/xlink" x="0px" y="0px"
	 viewBox="0 0 800 158.7" style="enable-background:new 0 0 800 158.7;" xml:space="preserve">
<style type="text/css">
	.st0{fill-rule:evenodd;clip-rule:evenodd;stroke:#000000;stroke-width:2;stroke-miterlimit:10;}
	.st1{fill-rule:evenodd;clip-rule:evenodd;}
</style>
<polygon class="st0" points="121,82.6 121,59.7 87.3,79.3 53.5,59.7 53.5,115.6 121,115.6 121,94.8 85.4,104.1 85.4,96.9 128,85.8 
	128,122.6 46.5,122.6 46.5,47.6 87.3,71.2 128,47.6 128,80.5 "/>
<g>
	<path class="st1" d="M275.2,48.6c-11.1,2.1-17.4,7.6-22.2,14.1c-18.9,25.4,1.6,65.1,34.1,58.8c17.4-3.3,31-21.2,27.9-42.8
		C312.6,61.6,296,44.8,275.2,48.6L275.2,48.6z M448.2,107.8l-42.7,0.4l-0.2,13.7c1.4,0.3,36.9,1.2,42,0.3
		c10.4-1.9,17.4-10.2,18.6-20.9c0.9-7.9-1.4-16.2-7.7-21.3c-11.4-9.1-31-2.4-39.1-5.4c-6.2-2.3-5-11.7,1-13.1
		c9.9-2.3,32.8,1.6,43.9-0.6V48.4c-3.8-1-38.4-0.9-44.1-0.5c-11.9,0.9-20.1,14.4-15.8,27.5c8.2,24.8,41.5,5,48.6,17.8
		C456,98.9,453.3,105.9,448.2,107.8L448.2,107.8z M545,121.8l0.1-45.3c-4.7-1.4-26.9-0.5-33.4-0.5l-0.1,12.8h21.2l0.1,20.3
		c-9.9,0.6-24.7,1.5-31.9-3.2c-18.6-12.3-11.1-41.4,7.9-43.8c10.9-1.4,25.5,1.1,36-0.5l0.2-13.1c-4.5-1.3-19.7-0.5-25.4-0.5
		c-9.5,0-14.7-0.5-22.3,3.6c-24.6,13-26.9,52.5-0.5,67c6.7,3.7,13,3.8,22.1,3.8C524.6,122.2,540.6,123,545,121.8L545,121.8z
		 M327.4,121.9l12.8,0.3l0.2-48.5c3.2,1.6,36.7,46.6,38.1,48.5h12.6l0.2-74l-13-0.2v51.1c-3.1-1.9-7.8-9.7-9.9-12.6
		c-3.3-4.3-6.2-8.5-9.2-12.7c-7.1-9.7-12.7-16.8-18.6-25.6l-13-0.3L327.4,121.9L327.4,121.9z M557,122.2h66.5l0.2-13.4
		c-9.4-0.3-49.6,1.2-54.2-0.6l-0.8-4c-0.1-1.7,0-3.8,0-5.5c0-3.5-0.3-7.1,0.3-10.5l42.6-0.2V75.6l-42.9-0.2
		c0-17.1,2.8-14.1,20.3-14.1c8.5,0,27.4,1,34.7-0.3V48.4c-5.4-1.3-27.5-0.5-34.7-0.5c-11.3,0-22.8-1.8-28.7,6.6
		c-5,7-3.7,21.6-3.7,31.8C556.7,97.2,555.9,111.8,557,122.2L557,122.2z M276.9,62c12.9-2.7,23.6,7.4,25.5,18.1
		c2.5,14-6.3,26-17.3,28.1C256.1,113.6,247,68.3,276.9,62z"/>
	<path class="st1" d="M161.7,55.1c0,21-0.5,46.5,0.2,67h12.9l0.1-50.1c3.6,1.4,0.8,0.2,3.2,2.1l19.8,16.5c5-3.3,11.1-9.5,16.4-13.7
		c3.6-2.9,3.8-3.8,6.5-4.8l0.2,49.6l12.9,0.4c1-14.2,0.3-48.5,0.3-64.7c0-22.4-18.3,2.1-36.2,15.1l-18.4-15.4
		c-2.5-2.2-6.2-5.4-8.9-7.5C165.9,46.1,161.7,49.6,161.7,55.1z"/>
	<path class="st1" d="M635.4,81.6V88h3.5h34.3h3.5v-7.2l-0.1-5.4l-41.2-0.1V81.6L635.4,81.6z M635.4,122.2c8.8,0,47.6,1.1,52.9-0.5
		v-12.5l-52.6-0.4L635.4,122.2L635.4,122.2z M635.4,61.3l53-0.1V48.4c-4.9-1.5-44.5-0.6-53-0.6V61.3L635.4,61.3z M700.1,87.9
		c1.7-0.9,7.7-7.1,9.7-9.4c5.5-6.7,25.2-26.2,27.3-30.2L700.2,48L700.1,87.9L700.1,87.9z M700.1,108.9c0-4.3,15.8-20.7,16.7-21.3
		c2,1.5,4.6,6.1,6.3,8.7c3.5,5.2,15.7,22.5,16.4,26h-39.4V108.9L700.1,108.9z M726,77.7c2.3-3.1,27-28,28.9-28.7l-0.1,72.1
		C753.5,120.4,728,82.2,726,77.7z"/>
</g>
</svg>
